<?xml version="1.0" encoding="utf-8"?>
<!-- Generator: Adobe Illustrator 24.1.2, SVG Export Plug-In . SVG Version: 6.00 Build 0)  -->
<svg version="1.1" id="Layer_1" xmlns="http://www.w3.org/2000/svg" xmlns:xlink="http://www.w3.org/1999/xlink" x="0px" y="0px"
	 viewBox="0 0 85 30" enable-background="new 0 0 85 30" xml:space="preserve">
<g>
	<path fill="#FFFFFF" d="M8.2,6.9c-1.3,0-2.5,0.2-3.5,0.7c0-0.3,0-0.5,0-0.5c-1-0.2-3.4-0.2-4.4,0c-0.2,1.1-0.2,21.8,0,22.8
		c1.1,0.2,3.6,0.2,4.4,0c0-0.5,0.1-3.6,0.1-7.4c1.1,0.4,2.2,0.6,3.5,0.6c4.4,0,8.1-2.7,8.1-8.1C16.3,9.6,12.6,6.9,8.2,6.9z M8.2,19
		c-2.2,0-4-1.8-4-4s1.8-4,4-4s4,1.8,4,4S10.4,19,8.2,19z"/>
	<path fill="#FFFFFF" d="M18.7,0.1c1-0.2,3.5-0.2,4.4,0c0.1,1.1,0.1,21.5,0,22.8c-0.9,0.2-3.3,0.2-4.4,0
		C18.5,21.9,18.5,1.2,18.7,0.1z"/>
	<path fill="#FFFFFF" d="M33.6,19c-2.2,0-4-1.8-4-4s1.8-4,4-4c1.1,0,2.1,0.5,2.9,1.2c1.7-1.7,2.6-2.6,3-3c-1.5-1.5-3.6-2.2-5.9-2.2
		c-1.5,0-2.8,0.3-4,0.9c-2.4,1.2-4,3.6-4,7.2c0,0.8,0.1,1.6,0.2,2.2c0.5,2.2,1.7,3.8,3.4,4.7c1.3,0.7,2.8,1.1,4.5,1.1
		c2.3,0,4.4-0.7,5.9-2.2l-3-3C35.7,18.6,34.7,19,33.6,19z"/>
	<path fill="#FFFFFF" d="M47.4,6.9c-1.5,0-2.8,0.3-4,0.9c-2.4,1.2-4,3.6-4,7.2c0,0.8,0.1,1.6,0.2,2.2c0.5,2.2,1.7,3.8,3.4,4.7
		c1.3,0.7,2.8,1.1,4.5,1.1c4.4,0,8.1-2.7,8.1-8.1C55.5,9.6,51.8,6.9,47.4,6.9z M47.4,19c-2.2,0-4-1.8-4-4s1.8-4,4-4c2.2,0,4,1.8,4,4
		S49.7,19,47.4,19z"/>
</g>
<g>
	<path fill="#EEEEEE" d="M67.8,18c0,0.1-0.1,0.3-0.1,0.5c0,0.2-0.1,0.4-0.1,0.5c-0.1,0.3-0.1,0.6-0.2,0.9c0,0.1-0.1,0.3-0.2,0.5
		c-0.1,0.2-0.1,0.4-0.3,0.6c-0.1,0.2-0.2,0.3-0.4,0.4c-0.1,0.2-0.3,0.4-0.5,0.5c0,0-0.1,0-0.1,0.1c-0.2,0.1-0.3,0.1-0.5,0.2
		c-0.1,0-0.3,0.1-0.4,0.1c-0.4,0-0.7,0-1,0c-0.1,0-0.3,0-0.4-0.1c-0.3-0.1-0.5-0.2-0.8-0.4c-0.1,0-0.2-0.1-0.3-0.1
		c-0.1-0.1-0.3-0.1-0.4-0.2c-0.3-0.2-0.5-0.4-0.8-0.6c-0.3-0.3-0.5-0.5-0.7-0.8c-0.2-0.4-0.4-0.9-0.6-1.3c-0.1-0.3-0.2-0.7-0.3-1
		c-0.1-0.5-0.1-1-0.1-1.5c0-0.8,0-1.5,0.2-2.2c0.1-0.3,0.2-0.7,0.3-1c0.1-0.4,0.3-0.8,0.4-1.2c0.1-0.3,0.2-0.6,0.3-0.9
		c0.2-0.4,0.4-0.9,0.7-1.2c0.4-0.3,0.7-0.7,1.1-1c0.3-0.2,0.5-0.4,0.8-0.5C63.8,8.2,64,8.1,64.1,8c0.2-0.1,0.5-0.1,0.7-0.1
		C65,7.9,65.2,8,65.4,8c0.2,0,0.4,0.2,0.5,0.4c-0.1,0-0.1,0.1-0.1,0.1c-0.2,0.1-0.3,0.2-0.5,0.3C65.2,8.9,65.1,9,65,9
		c-0.1,0.1-0.2,0.1-0.4,0.2c-0.3,0.2-0.6,0.3-0.8,0.6c-0.1,0.2-0.3,0.3-0.4,0.5c-0.1,0.1-0.1,0.3-0.2,0.4c-0.1,0.1-0.1,0.3-0.3,0.4
		c-0.1,0.2-0.2,0.4-0.3,0.6c-0.1,0.2-0.2,0.4-0.3,0.6c-0.1,0.2-0.1,0.5-0.2,0.7c-0.1,0.3-0.2,0.5-0.3,0.8c-0.1,0.3-0.2,0.5-0.3,0.8
		c-0.1,0.3-0.2,0.6-0.2,0.9c0,0.1,0,0.3,0,0.5c0,0.1,0,0.2-0.1,0.2c-0.1,0.3-0.1,0.5,0,0.8c0,0.2,0,0.4,0.1,0.7
		c0,0.2,0.1,0.4,0.2,0.5c0,0.1,0,0.3,0.1,0.4c0,0.1,0.1,0.2,0.1,0.3c0.1,0.1,0.1,0.1,0.1,0.2c0.1,0.2,0.3,0.4,0.4,0.5
		c0.1,0.1,0.2,0.3,0.4,0.4c0.1,0.1,0.3,0.2,0.4,0.3c0.1,0.1,0.3,0.1,0.4,0.1c0.1,0,0.3,0.1,0.4,0.1c0.3,0,0.5,0,0.8-0.1
		c0.1,0,0.2-0.1,0.3-0.2c0.3-0.3,0.6-0.7,0.8-1.1c0.2-0.3,0.2-0.8,0.3-1.2c0.1-0.3,0.1-0.7,0.1-1.1c0-0.2-0.1-0.5-0.2-0.7
		c-0.1-0.1-0.4-0.2-0.5-0.2c-0.1,0-0.3,0-0.4,0c-0.2,0-0.5,0-0.7,0.1c0,0-0.1,0-0.1,0c0,0,0,0,0,0c-0.1,0-0.2,0-0.3,0c0,0,0,0,0,0
		c-0.2-0.1-0.3-0.1-0.5-0.2c-0.1-0.1-0.1-0.2-0.2-0.3c0.1-0.1,0.2-0.2,0.4-0.3c0.2,0,0.4-0.1,0.6-0.1c0.5-0.1,1-0.2,1.5-0.2
		c0.3,0,0.5,0,0.8,0.1c0.2,0,0.4,0.1,0.6,0.1c0,0,0.1,0,0.1,0.1c0,0.1,0.1,0.1,0.2,0.3c0,0.1,0,0.2,0.1,0.3c0,0,0,0,0,0.1
		c0.1,0.4,0.1,0.8,0.2,1.2C67.9,17.6,67.9,17.8,67.8,18z M60,15.5c0-0.1,0-0.2,0-0.3c0,0,0,0-0.1,0C59.9,15.4,59.9,15.5,60,15.5
		C59.9,15.6,60,15.6,60,15.5z M60.1,16c0,0-0.1,0-0.1,0.1c0.1,0,0.1,0.1,0.1,0.1C60.1,16.1,60.1,16.1,60.1,16z M61.1,13.2
		c0-0.1,0-0.2,0-0.3c0,0-0.1,0-0.1,0C61,13.1,61,13.2,61.1,13.2C61.1,13.2,61.1,13.2,61.1,13.2z M66.3,15.9c0-0.1,0-0.1,0-0.2
		c-0.1,0-0.1,0-0.2,0l0,0C66.1,15.8,66.2,15.9,66.3,15.9z"/>
	<path fill="#EEEEEE" d="M75.8,7.7c-0.1,0.3-0.2,0.5-0.3,0.8c0,0.1,0,0.2-0.1,0.3c0,0,0,0.1,0,0.1c0,0.2-0.1,0.4-0.1,0.6
		c0,0.1-0.1,0.2-0.1,0.3c-0.1,0.3-0.2,0.5-0.3,0.8c-0.1,0.2-0.1,0.4-0.1,0.6c0,0,0,0.1,0,0.1c0,0.1-0.1,0.3-0.1,0.5
		c-0.1,0.2-0.2,0.4-0.2,0.7c-0.1,0.3-0.1,0.5-0.2,0.8S74.1,13.7,74,14c0,0,0,0.1,0,0.1c-0.1,0.2-0.1,0.3-0.2,0.5
		c0,0.1,0,0.2-0.1,0.3c-0.1,0.2-0.1,0.4-0.2,0.7c0,0.1-0.1,0.3-0.1,0.5c0,0.1,0,0.1,0,0.2c0,0.2-0.1,0.3-0.1,0.5
		c0,0.2-0.1,0.3-0.1,0.5c-0.1,0.2-0.1,0.4-0.2,0.6c0,0.1,0,0.2,0,0.3c0,0.1-0.1,0.2-0.1,0.3c0,0-0.1,0-0.1,0.1
		c0,0.3-0.1,0.6-0.2,0.8c0,0.2-0.1,0.4-0.2,0.5c-0.1,0.2-0.1,0.4-0.1,0.6c0,0,0,0,0,0c-0.1,0.1-0.1,0.3-0.1,0.5
		c-0.1,0.2-0.1,0.5-0.2,0.8c-0.1,0.2-0.1,0.5-0.2,0.7c0,0.1-0.1,0.3-0.2,0.4c-0.1,0.1-0.2,0.2-0.3,0.2C71,23,70.9,23,70.7,23.1
		c-0.1,0-0.1-0.1-0.1-0.2c0-0.4,0-0.7,0.1-1.1c0-0.2,0.1-0.4,0.1-0.6c0-0.3,0.1-0.5,0.1-0.8c0-0.1,0.1-0.3,0.1-0.4
		c0-0.1,0.1-0.3,0.1-0.4c0-0.2,0.1-0.4,0.1-0.7c0.1-0.4,0.2-0.9,0.3-1.4c0.1-0.2,0.1-0.4,0.1-0.6c0,0,0-0.1,0-0.1
		c-0.2-0.3-0.3-0.6-0.5-0.9c-0.1-0.1-0.1-0.2-0.1-0.4c-0.1-0.3-0.2-0.5-0.3-0.8c0,0,0-0.1,0-0.1c0,0,0,0,0.1,0c0,0,0,0,0,0
		c0,0,0,0-0.1,0c-0.2-0.7-0.4-1.3-0.7-1.9c0-0.1-0.1-0.1-0.1-0.2c-0.1-0.4-0.2-0.7-0.3-1c-0.1-0.4-0.2-0.7-0.3-1
		c-0.1-0.2-0.1-0.4-0.2-0.6c-0.1-0.5-0.3-1-0.4-1.5c-0.1-0.3-0.1-0.5-0.1-0.8c0-0.2,0.1-0.3,0.3-0.3c0.1,0,0.2,0,0.3,0c0,0,0,0,0,0
		c0.1,0.1,0.1,0.1,0.2,0.1c0.1,0.1,0.2,0.2,0.2,0.4C69.9,7.9,70,8,70,8.1c0.1,0.1,0.1,0.3,0.2,0.4c0.1,0.3,0.1,0.5,0.2,0.7
		c0,0.1,0.1,0.3,0.2,0.4c0,0,0,0,0,0c0,0,0,0,0,0c0.1,0.2,0.1,0.4,0.2,0.6c0,0,0,0-0.1,0.1c0,0,0.1,0,0.1,0c0,0.1,0.1,0.1,0.1,0.2
		c0,0,0,0.1,0,0.2c0,0,0,0.1,0,0.1c0,0,0.1,0,0.1,0.1c0.1,0.2,0.1,0.4,0.2,0.6c0,0,0,0,0,0c0,0.3,0.2,0.5,0.3,0.7
		c0,0.1,0,0.3,0.1,0.4c0.1,0.2,0.2,0.4,0.3,0.6c0.1,0.3,0.2,0.5,0.3,0.8c0,0.1,0.1,0.3,0.1,0.5c0,0,0.1,0,0.1,0
		c0.3-1.1,0.7-2.2,1-3.2c0.1-0.1,0.2-0.1,0.4-0.1c0,0,0,0,0,0c-0.1,0-0.1-0.1-0.2-0.1c0,0,0,0,0,0.1c0-0.1,0-0.3,0.1-0.4
		c0,0,0,0,0,0c0-0.1,0-0.2,0.1-0.2c0,0,0.1,0,0.1,0c0,0,0,0.1,0,0.1c0,0,0,0,0,0c0,0,0-0.1,0-0.1c0,0,0,0,0.1-0.1c0,0,0,0,0,0
		c0,0-0.1,0-0.2,0c0,0,0,0,0,0c0-0.2,0.1-0.3,0.1-0.5c0-0.1,0-0.2,0.1-0.3c0,0,0,0,0.1-0.1c0-0.1,0-0.3,0.1-0.4c0-0.2,0-0.3,0.1-0.4
		h0c0-0.2,0.1-0.3,0.1-0.5c0.1-0.3,0.2-0.7,0.4-1c0-0.1,0.1-0.1,0.1-0.2c0-0.1,0.1-0.1,0.2,0c0.1-0.1,0.3-0.1,0.4,0c0,0,0.1,0,0.1,0
		c0.1,0,0.2,0,0.3,0.1S75.9,7.5,75.8,7.7z M73.9,10.8c0,0,0-0.1,0-0.1c0,0-0.1,0-0.1,0c0,0,0,0,0,0C73.8,10.8,73.8,10.8,73.9,10.8z
		 M74.1,9.9c0,0-0.1-0.1-0.1-0.1c0,0,0,0,0,0c0,0,0,0.1,0,0.1c0,0-0.1,0-0.1,0C73.9,9.9,74,10,74.1,9.9C74.1,9.9,74.1,9.9,74.1,9.9z
		"/>
	<path fill="#EEEEEE" d="M77.7,7.2c0.1,0,0.3,0.1,0.4,0.2c0.1,0,0.1,0.1,0.1,0.2c0.1,0.1,0.1,0.2,0.2,0.3c0,0,0,0,0,0
		c0.1,0.3,0.3,0.6,0.5,0.9C78.9,8.8,79,9,79,9.1c0,0.1,0.1,0.2,0.1,0.3c0,0,0,0.1,0.1,0.1c0.1,0.1,0.1,0.2,0.1,0.3
		c0.1,0.2,0.2,0.4,0.3,0.6c0.1,0.2,0.1,0.3,0.2,0.5c0,0,0,0.1,0.1,0.1c0.1,0.3,0.3,0.6,0.4,0.9c0.3,0.4,0.3,0.9,0.6,1.5
		c0,0,0,0,0.1,0c0-0.2,0.1-0.5,0.2-0.7c0-0.1,0.1-0.3,0.1-0.4c0.1-0.3,0.2-0.7,0.3-1c0.1-0.2,0.1-0.4,0.2-0.5
		c0.1-0.2,0.1-0.4,0.2-0.6C82,9.8,82.1,9.4,82.2,9c0-0.2,0.1-0.4,0.1-0.5c0-0.2,0.1-0.4,0.2-0.5c0.1-0.2,0.1-0.4,0.2-0.6
		c0.1-0.1,0.1-0.3,0.2-0.4C82.9,7,83,7,83,7c0,0,0.1-0.1,0.1-0.1h0c0.1,0,0.2,0.1,0.3,0.1c0.1,0,0.1,0.1,0.2,0.1
		c0.1,0.1,0.2,0.2,0.3,0.3c0,0.1,0.1,0.2,0.2,0.3c0.1,0.2,0.1,0.4,0.1,0.6c0,0.1,0,0.1,0.1,0.2c0,0.3,0,0.5,0.1,0.8
		c0,0.1,0,0.2,0,0.3c0,0.3,0,0.6,0,0.9c0,0.3,0,0.5,0.1,0.8c0,0.2,0,0.4,0,0.7c0,0.1,0,0.2,0,0.3c0,0,0,0.1,0,0.1
		c0.1,0.2,0.1,0.3,0.1,0.5c0,0.1,0,0.3,0,0.4c0,0.3,0,0.6,0,0.8c0,0.1,0,0.3,0,0.5c0,0.1,0,0.2,0,0.4c0,0,0,0.1,0,0.1
		c0,0,0,0.1,0,0.1c0,0.2,0,0.4,0,0.7c0,0,0,0,0,0c0,0.1,0,0.2,0,0.3c0,0.1,0,0.2,0,0.4c0,0.1,0,0.1,0,0.2c0,0.1,0,0.2,0,0.3
		c0,0.1,0,0.3,0,0.5c0,0.2,0,0.3,0,0.5s0,0.4,0,0.6c0,0.2,0,0.3,0,0.5c0,0.1,0,0.2,0,0.3c0,0.3,0.1,0.6,0.1,0.9c0,0.3,0,0.5,0,0.8
		c0,0.2,0,0.4,0,0.6c0,0.1,0,0.3,0,0.4s-0.1,0.3-0.1,0.4c0,0.1-0.1,0.1-0.2,0.1c-0.1,0-0.2,0-0.3,0c-0.1,0-0.2-0.1-0.3-0.2
		c-0.1-0.1-0.1-0.2-0.2-0.3c-0.1-0.1-0.2-0.3-0.2-0.5c0-0.3,0-0.6,0-0.9c0-0.2-0.1-0.5-0.1-0.7c0-0.2,0-0.4,0-0.6c0-0.2,0-0.4,0-0.5
		c0-0.3,0-0.5,0-0.7c0-0.2,0-0.4,0-0.6c0-0.1,0-0.3,0-0.4c0-0.3,0-0.5,0-0.8c0-0.3,0-0.6,0-0.9c0-0.3,0-0.7-0.1-1c0-0.1,0-0.3,0-0.4
		c0-0.1,0-0.3,0-0.4c0-0.1,0-0.3,0-0.4c0-0.1,0-0.3,0-0.4c0-0.2,0-0.4,0-0.5c0-0.1,0-0.3,0-0.4c0-0.4,0-0.9,0-1.3c0-0.3,0-0.6,0-0.8
		c0,0,0-0.1,0-0.1c0,0,0,0,0,0c-0.1,0.2-0.1,0.4-0.2,0.6c0,0.1,0,0.3-0.1,0.4c0,0.2-0.1,0.3-0.1,0.5c0,0.1,0,0.1,0,0.2
		c0,0.2-0.1,0.3-0.1,0.5c0,0.2-0.1,0.3-0.1,0.5c0,0,0,0,0,0.1c0,0.2-0.1,0.3-0.1,0.5c0,0.1,0,0.2-0.1,0.3c0,0.2-0.1,0.5-0.1,0.7
		c0,0.1-0.1,0.2-0.1,0.3c0,0.1-0.1,0.3-0.1,0.4c0,0.2,0,0.3-0.1,0.5c0,0.1,0,0.1-0.1,0.2c0,0.1-0.1,0.3-0.1,0.4
		c0,0.1-0.1,0.3-0.1,0.4c0,0.1-0.1,0.2-0.2,0.3c-0.1,0.1-0.2,0.3-0.3,0.3c-0.1,0-0.2,0-0.3-0.1c-0.1-0.1-0.2-0.2-0.3-0.3
		c-0.1-0.2-0.3-0.5-0.4-0.7c-0.1-0.2-0.1-0.4-0.3-0.6c-0.2-0.3-0.3-0.6-0.4-0.9c-0.1-0.2-0.2-0.5-0.3-0.7c-0.1-0.2-0.2-0.5-0.3-0.7
		c-0.1-0.2-0.2-0.4-0.3-0.7c-0.1-0.3-0.2-0.6-0.3-0.8c0-0.1-0.1-0.3-0.1-0.4c0-0.1-0.1-0.3-0.1-0.4c0,0,0-0.1,0-0.1
		C78,9.9,78,9.7,77.9,9.6c0,0,0,0,0,0c0,0.1,0,0.1,0,0.2c0,0.1,0.1,0.3,0.1,0.4c0,0.3,0,0.7,0,1c0,0.1,0,0.3,0,0.4
		c0,0.2,0,0.4,0,0.5c0,0.1,0,0.3,0,0.4c0,0.1,0,0.3,0,0.4c0,0,0,0,0,0h0c0,0.1,0,0.2,0,0.2s0,0.1,0,0.2l0,0c0,0.2,0.1,0.4,0.1,0.6
		c0,0,0,0,0,0c0,0.2,0,0.4,0,0.6c0,0.3,0,0.5,0,0.8c0,0,0,0,0,0c0,0,0,0,0,0.1h0c0,0.5,0.1,0.9,0.1,1.4c0.1,0.1,0,0.3,0,0.5
		c0,0.1,0,0.2,0,0.3c0,0.3,0.1,0.5,0.1,0.8c0,0.2,0,0.4,0,0.6c0,0.2,0,0.3,0,0.5c0,0.2,0,0.4,0,0.6c0,0.2,0,0.4,0,0.5
		c0,0.1,0,0.2,0,0.3c0,0.3,0,0.6,0,0.8c0,0.1,0,0.1-0.1,0.2c0,0,0,0-0.1,0c0.1,0.1,0.2,0.1,0.1,0.3c-0.1,0.1-0.3,0.1-0.4,0.3
		c-0.1,0-0.1,0-0.2,0c-0.1,0-0.1,0-0.2,0.1c0,0,0-0.1,0-0.1c0,0-0.1-0.1-0.1-0.1c-0.1-0.1-0.2-0.2-0.2-0.3c0-0.2,0-0.4,0-0.6
		c0,0,0-0.1,0-0.2c0-0.1,0-0.2,0-0.3c0-0.2,0-0.4-0.1-0.6c0-0.4,0-0.7,0-1.1c0-0.3,0-0.6,0-0.9c0-0.1,0-0.3,0-0.4
		C77,17.7,77,17.4,77,17.1c0-0.4,0-0.8,0-1.2c0-0.3,0-0.6,0-0.9c0-0.3,0-0.7,0-1c0-0.3,0-0.5,0-0.8c0-0.2,0-0.5,0-0.7
		c0-0.4,0-0.8,0-1.1c0-0.1,0-0.2,0-0.4c0-0.2,0-0.3,0-0.5c0-0.2,0-0.5,0-0.7c0-0.1,0.1-0.3,0-0.5c0-0.3,0-0.5,0-0.7
		c0-0.2,0-0.3,0-0.5c0-0.2,0-0.4,0-0.6c0-0.1,0-0.2,0-0.4C77.1,7.1,77.3,7.2,77.7,7.2z M78.1,9c0,0,0-0.1,0-0.1c0,0,0,0,0,0
		c0,0.1,0,0.2,0,0.3h0C78,9.1,78,9,78.1,9C78,9,78,9,78.1,9C78,9,78.1,9,78.1,9z"/>
</g>
</svg>
