<?xml version="1.0" encoding="utf-8"?>
<!-- Generator: Adobe Illustrator 24.1.2, SVG Export Plug-In . SVG Version: 6.00 Build 0)  -->
<svg version="1.1" id="Layer_1" xmlns="http://www.w3.org/2000/svg" xmlns:xlink="http://www.w3.org/1999/xlink" x="0px" y="0px"
	 viewBox="0 0 144 78" enable-background="new 0 0 144 78" xml:space="preserve">
<g>
	<path fill="#FFFFFF" d="M21,18c-3.3,0-6.4,0.6-9.2,1.7c0-0.7,0-1.2-0.1-1.4c-2.5-0.4-8.9-0.4-11.5,0c-0.4,2.7-0.4,56.6,0,59.3
		c2.8,0.5,9.3,0.5,11.5,0c0.1-1.3,0.2-9.4,0.2-19.2c2.7,1.1,5.8,1.6,9,1.6c11.4,0,21-6.9,21-21C42,24.9,32.4,18,21,18z M21,49.5
		c-5.8,0-10.5-4.7-10.5-10.5S15.2,28.5,21,28.5S31.5,33.2,31.5,39S26.8,49.5,21,49.5z"/>
	<path fill="#FFFFFF" d="M48.3,0.3c2.6-0.4,9-0.4,11.5,0c0.3,2.7,0.3,55.9,0,59.3c-2.2,0.5-8.6,0.5-11.5,0
		C47.9,56.9,47.9,3.1,48.3,0.3z"/>
	<path fill="#FFFFFF" d="M87,49.5c-5.8,0-10.5-4.7-10.5-10.5S81.2,28.5,87,28.5c2.9,0,5.5,1.2,7.4,3.1c4.4-4.4,6.7-6.7,7.9-7.9
		C98.4,19.9,93,18,87,18c-3.8,0-7.4,0.8-10.5,2.3C70.2,23.4,66,29.6,66,39c0,2.1,0.2,4.1,0.6,5.8c1.3,5.7,4.5,9.8,8.8,12.3
		C78.7,59,82.7,60,87,60c6,0,11.4-1.9,15.3-5.7l-7.9-7.9C92.5,48.3,89.9,49.5,87,49.5z"/>
	<path fill="#FFFFFF" d="M123,18c-3.8,0-7.4,0.8-10.5,2.3C106.2,23.4,102,29.6,102,39c0,2.1,0.2,4.1,0.6,5.8
		c1.3,5.7,4.5,9.8,8.8,12.3c3.3,1.9,7.3,2.9,11.6,2.9c11.4,0,21-6.9,21-21C144,24.9,134.4,18,123,18z M123,49.5
		c-5.8,0-10.5-4.7-10.5-10.5s4.7-10.5,10.5-10.5c5.8,0,10.5,4.7,10.5,10.5S128.8,49.5,123,49.5z"/>
</g>
</svg>
